<svg xmlns="http://www.w3.org/2000/svg" width="1973" height="183" viewBox="0 0 1973 183">
  <g fill="none" fill-rule="evenodd" transform="translate(.272)">
    <path fill="#DFE0F1" d="M1972.19222,0 C1785.18276,87.7650221 1670.24202,139.986822 1627.37001,156.665399 C1593.74598,169.746217 1565.37222,175.184818 1557.73134,176.592156 C1524.3495,182.740594 1500.9452,182.781609 1468.68544,182.781609 C1436.42567,182.781609 1401.62763,177.81714 1376.58778,173.14782 C1323.50087,163.248406 1278.40335,154.066919 1250.14735,147.740594 C1207.35438,138.159539 1160.75477,123.731805 1146.6747,120.263055 C1132.59462,116.794305 1059.86708,100.798211 1023.7411,95.1702813 C987.615125,89.5423517 911.396493,84.4276769 897.832898,83.8284845 C885.444091,83.28119 851.471568,82.3934351 784.638563,90.938836 C760.62426,94.0093525 734.344947,100.015434 708.280164,105.695672 C669.677811,114.108194 631.62696,122.843585 602.75868,128.694695 C577.828911,133.747536 556.916379,139.415548 534.219617,142.726922 C520.353534,144.749933 487.836303,147.321841 454.714734,147.740594 C440.651885,147.918389 400.074447,147.837048 357.275281,142.726922 C339.577878,140.613891 286.705658,134.524033 222.517469,108.660516 C183.380659,92.8910171 109.208169,56.6708452 0,0 L1972.19222,0 Z"/>
    <path fill="#C2C2E2" d="M1922.19222,-1.42108547e-14 C1745.14594,73.0355972 1639.47245,117.967683 1605.17177,134.796258 C1573.26454,150.450555 1530.55094,159.708256 1522.91005,161.115594 C1489.52821,167.264031 1421.11102,163.177694 1390.77919,158.790399 C1337.90393,151.142348 1288.80224,140.999629 1257.69032,134.796258 C1239.15223,131.099969 1155.3036,112.107781 1147.62196,110.568719 C1139.94032,109.029656 1089.59086,97.3501447 1025.70204,90.7552423 C961.813222,84.1603399 908.160047,79.8616876 893.680555,79.8616876 C879.201063,79.8616876 842.784068,79.3807397 775.951063,87.9261407 C716.3712,95.5441404 645.58048,115.074399 600.13075,125.000359 C548.229383,136.33532 486.913759,141.192742 469.278211,141.192742 C455.723865,141.192742 394.548986,140.929694 364.105359,136.33532 C334.136424,131.812585 260.675672,110.568719 234.728406,99.0023126 C212.050244,88.8931612 146.474109,55.8923904 38,-1.42108547e-14 L1922.19222,-1.42108547e-14 Z"/>
    <path fill="#A3A5D2" d="M1852.19222,-2.84217094e-14 C1682.54968,76.6877396 1594.03895,116.444695 1586.66005,119.270867 C1571.77741,124.97102 1545.61164,136.860472 1520.52138,142.390984 C1506.49261,145.483271 1472.85142,150.752753 1441.94325,149.456414 C1402.0132,147.781683 1362.16493,140.481907 1351.98622,139.149774 C1295.11774,131.707141 1263.29627,123.718611 1231.26356,117.551141 C1187.57221,109.138955 1156.74012,104.280633 1147.67274,102.908563 C1138.60536,101.536492 1091.31058,93.5454572 1027.42177,86.9505548 C963.532948,80.3556524 926.324109,75.450375 884.707898,75.450375 C843.091687,75.450375 839.222544,73.7420679 772.389539,82.2874688 C712.809677,89.9054685 641.937391,108.785516 580.69618,121.312859 C539.247221,129.791551 478.773328,132.699578 457.215711,132.699578 C435.658094,132.699578 410.273596,132.231452 379.829969,127.637078 C349.861033,123.114342 323.532703,114.13168 318.495984,112.485711 C310.01183,109.713142 298.045234,106.064439 275.283094,96.8323907 C252.520953,87.600342 249.571622,85.2357318 234.728406,79.2552423 C203.451186,66.6533181 154.541718,40.234904 88,-2.84217094e-14 L1852.19222,-2.84217094e-14 Z"/>
    <path fill="#48485B" d="M1816.30653,-1.42108547e-14 C1653.06825,78.6258907 1559.49273,121.546909 1535.57997,128.763055 C1520.36114,133.355637 1490.15536,142.018617 1458.40223,142.789422 C1415.31668,143.83532 1369.33575,135.709394 1353.64833,133.099969 C1234.03407,113.203484 1162.1733,102.15232 1149.08583,101.274774 C1135.99836,100.397227 1088.92972,92.6489728 1025.04091,86.0540704 C961.152089,79.459168 899.610242,73.9935235 885.00282,73.9935235 C870.395398,73.9935235 836.217662,70.3963647 769.384656,78.9417657 C745.050031,82.0532392 718.96004,86.5623118 691.996961,91.5745782 C652.944782,98.8341322 612.680565,107.756658 575.902234,113.203484 C522.075937,121.175094 475.535829,121.83532 457.900281,121.83532 C431.002935,121.83532 404.984966,121.36583 381.453016,116.853875 C357.921065,112.341921 319.735229,98.0988294 312.652234,94.7249688 C288.857964,83.3909845 234.307219,51.8159949 149,-1.42108547e-14 L1816.30653,-1.42108547e-14 Z"/>
  </g>
</svg>
